<?xml version="1.0" encoding="UTF-8" standalone="no"?><!-- Generator: Gravit.io --><svg xmlns="http://www.w3.org/2000/svg" xmlns:xlink="http://www.w3.org/1999/xlink" preserveAspectRatio="none" style="isolation:isolate" viewBox="0 0 560 150" width="560pt" height="150pt"><defs><clipPath id="_clipPath_bsOE4HImynPCuL0WRG1GSaQuGgJVi405"><rect width="560" height="150"/></clipPath></defs><g clip-path="url(#_clipPath_bsOE4HImynPCuL0WRG1GSaQuGgJVi405)"><path d=" M -3 104 Q 9.866 149.091 60.411 149 C 110.957 148.909 123.033 39.5 167 39.5 C 217 39.5 228.35 66.667 331.411 68 C 408.312 68.995 441 17.813 486 18.5 C 531 19.187 553.943 41.204 573 48 C 592.057 54.796 584.797 85.739 646.411 85 Q 723.879 84.071 691.411 -46 L -34.589 -17 L -3 104 Z " fill="rgb(108,73,202)"/><path d=" M -5 95 Q 1.455 132.091 52 132 C 65.793 131.975 85.133 116.89 94.626 106.599 C 119.922 79.178 135.031 29 167 29 C 217 29 202.939 55.667 306 57 C 405.667 58.289 438.063 9.313 491 9 C 550.188 8.651 584.797 73.738 646.411 73 Q 723.879 72.071 691.411 -58 L -34.589 -29 L -5 95 Z " fill="rgb(72,28,189)"/><path d=" M -1 81.5 Q -1.545 130.091 49 130 C 65.731 129.97 78.84 117.743 90.486 101.397 C 114.024 68.36 131.586 18.5 161 18.5 C 211 18.5 216.939 38.166 320 39.5 C 419.667 40.789 467.864 5.886 508 5.5 C 548.136 5.113 573.386 57.238 635 56.5 Q 712.468 55.571 680 -74.5 L -46 -45.5 L -23 97.5 L -1 81.5 Z " fill="rgb(50,19,132)"/></g></svg>